# xmcd
#
# Track frame offsets:
#	150
#	16478
#	44592
#
# Disc length: 950 seconds
#
# Revision: 0
# Processed by: cddbd v1.5.2PL0 Copyright (c) Steve Scherf et al.
# Submitted via: audiograbber 1.83.01
#
DISCID=2003b403
DTITLE=DJ Berny - DJ Berny feat. The House Sistaz
DYEAR=2004
DGENRE=House
TTITLE0=Showgirl (Gift Of Funk) (Radio Edit)
TTITLE1=Showgirl (Gift Of Funk) (Extendend Version)
TTITLE2=Showgirl (Gift Of Funk) (Club Version)
EXTD=
EXTT0=
EXTT1=
EXTT2=
PLAYORDER=
